# xmcd CD database file
# Copyright (C) 1995-1998 Ti Kan
#
# Track frame offsets:
#	187
#	12632
#	23915
#	37330
#	54410
#	66662
#	78872
#	89880
#	103905
#	117057
#
# Disc length: 1720 seconds
#
# Revision: 1
# Processed by: cddbd v1.4b41PL1 Copyright (c) Steve Scherf et al.
# Submitted via: CDex 1.30
#
DISCID=8e06b60a
DTITLE=Joe Barnhill - Joe Barnhill
DYEAR=1990
DGENRE=Country
TTITLE0=Your Old Flame's Going Out Tonight
TTITLE1=Good As Gone
TTITLE2=Any Old Time
TTITLE3=The Chill Of An Early Fall
TTITLE4=Becky Morgan (Cotton Pickin' Time)
TTITLE5=Lucky Me, Lucky You
TTITLE6=For Cryin' Out Loud
TTITLE7=It's All Coming Back To Me Now
TTITLE8=Special Occasions
TTITLE9=Tell Me Why (I'm Still Crying Over You)
EXTD=\nYEAR: 1990  ID3G:   2
EXTT0=
EXTT1=
EXTT2=
EXTT3=
EXTT4=
EXTT5=
EXTT6=
EXTT7=
EXTT8=
EXTT9=
PLAYORDER=
